# xmcd
#
# Track frame offsets: 
#        150
#        11207
#        22877
#        27340
#        46725
#        54275
#        67577
#        72840
#        87462
#        112265
#
# Disc length: 1713 seconds
#
# Revision: 0
# Processed by: cddbd v1.5.2PL0 Copyright (c) Steve Scherf et al.
# Submitted via: ExactAudioCopy v0.95b4
#
DISCID=7906af0a
DTITLE=Jackie Wilson - Jackie Wilson Live!
DYEAR=2002
DGENRE=R&B
TTITLE0=The Way I Am
TTITLE1=I Apologize
TTITLE2=That's Why (I Love You So)
TTITLE3=Lonely Teardrops
TTITLE4=Doggin' Around
TTITLE5=To Be Loved
TTITLE6=Night
TTITLE7=A Perfect Day
TTITLE8=St. James Infirmary
TTITLE9=Love For Sale
EXTD=
EXTT0=
EXTT1=
EXTT2=
EXTT3=
EXTT4=
EXTT5=
EXTT6=
EXTT7=
EXTT8=
EXTT9=
PLAYORDER=
